<?xml version="1.0" encoding="utf-8"?>
<!-- Generator: Adobe Illustrator 24.0.2, SVG Export Plug-In . SVG Version: 6.00 Build 0)  -->
<svg version="1.1" id="OBJECTS" xmlns="http://www.w3.org/2000/svg" xmlns:xlink="http://www.w3.org/1999/xlink" x="0px" y="0px"
	 viewBox="0 0 280.1 280.8" style="enable-background:new 0 0 280.1 280.8;" xml:space="preserve">
<style type="text/css">
	.st0{fill:#1CBA1C;}
	.st1{fill:#1AD395;}
	.st2{fill:#15B715;}
</style>
<g>
	<path class="st0" d="M25.9,127.6l1.4-12.5l3.3,0.4l-1,8.9l3.4,0.4l0.9-7.8l3.3,0.4l-0.9,7.8l3.5,0.4l1-9l3.3,0.4l-1.4,12.7
		L25.9,127.6z"/>
	<path class="st0" d="M41.8,114.6l-1.9-2.8c1.6-1.1,2.8-2.4,3.3-4.3c0.4-1.5,0.1-2.5-0.9-2.7l0,0c-0.9-0.2-1.5,0.2-2.9,2.7
		c-1.7,3-3.2,4.9-6.4,4l0,0c-2.9-0.8-4.2-3.7-3.3-7c0.6-2.4,1.9-4.2,3.7-5.4l2.2,2.6c-1.4,1.2-2.4,2.4-2.7,3.8s0.1,2.2,0.8,2.5l0,0
		c1.1,0.3,1.6-0.3,3.1-2.9c1.7-3,3.4-4.6,6.2-3.8l0,0c3.2,0.9,4.3,3.8,3.4,7.3C45.6,110.9,44.1,113.1,41.8,114.6z"/>
	<path class="st0" d="M37.8,91.4l-2.1,4.7l-3.1-1.4L38.3,82l3.1,1.4l-2.1,4.7l12.2,5.4L50,96.8L37.8,91.4z"/>
	<path class="st0" d="M48.5,83.2l-8-5.2l2-3.1l7.9,5.2c2.3,1.5,4.2,1.1,5.4-0.7c1.2-1.9,0.8-3.8-1.4-5.2l-8-5.3l2-3.1l7.9,5.2
		c4.2,2.8,4.7,6.5,2.3,10.3C56.2,84.9,52.6,85.9,48.5,83.2z"/>
	<path class="st0" d="M52.3,61l4.5-4.7c3.6-3.8,8.7-3.9,12.1-0.7l0,0c3.4,3.2,3.5,8.4-0.1,12.2l-4.5,4.7L52.3,61z M66.5,65.5
		c2.1-2.2,2-5-0.1-7.1l0,0c-2.1-2-5-2-7.1,0.2l-2,2.1l7.3,7L66.5,65.5z"/>
	<path class="st0" d="M67,46.7l2.9-2.3l10.5,13l-2.9,2.3L67,46.7z"/>
	<path class="st0" d="M78.2,48.2L78.2,48.2c-2.5-4.1-1.2-9.4,3.2-12c4.4-2.6,9.6-1.2,12,2.9l0,0c2.4,4.1,1.2,9.3-3.2,12
		C85.7,53.7,80.6,52.3,78.2,48.2z M90.1,41.1L90.1,41.1c-1.5-2.5-4.5-3.5-7.1-2c-2.5,1.5-3.1,4.6-1.7,7l0,0c1.5,2.5,4.5,3.4,7,1.9
		C91,46.6,91.6,43.6,90.1,41.1z"/>
	<path class="st0" d="M98.1,43.6l1.1-3.2c1.8,0.6,3.6,0.8,5.4,0.1c1.4-0.5,2-1.4,1.7-2.3l0,0c-0.3-0.9-1-1.1-3.9-0.8
		c-3.5,0.4-5.8,0.3-7-2.8l0,0c-1.1-2.8,0.5-5.6,3.7-6.8c2.3-0.9,4.5-0.9,6.6-0.2l-0.8,3.3c-1.7-0.4-3.3-0.5-4.6,0
		c-1.3,0.5-1.8,1.4-1.5,2.1l0,0c0.4,1,1.2,1.1,4.1,0.8c3.5-0.4,5.7,0.1,6.7,2.8l0,0c1.2,3.1-0.5,5.7-3.9,7
		C103.3,44.5,100.6,44.5,98.1,43.6z"/>
	<path class="st0" d="M118.3,22.4l12.5-1.7l0.4,3.2l-8.9,1.2l0.5,3.4l7.8-1l0.4,3.2l-7.8,1l0.5,3.5l9-1.2l0.4,3.2l-12.6,1.7
		L118.3,22.4z"/>
	<path class="st0" d="M134.8,34.7l2.2-2.6c1.5,1.3,3,2.1,4.9,2.1c1.5,0,2.4-0.5,2.4-1.5l0,0c0-0.9-0.5-1.4-3.3-2.2
		c-3.3-0.9-5.5-1.9-5.4-5.2l0,0c0.1-3,2.5-5,6-4.9c2.4,0,4.5,0.9,6.2,2.3l-2,2.7c-1.5-1.1-2.9-1.7-4.3-1.7c-1.4,0-2.2,0.6-2.2,1.4
		l0,0c0,1.1,0.7,1.5,3.6,2.3c3.4,1,5.3,2.2,5.2,5.1l0,0c-0.1,3.3-2.6,5.1-6.2,5.1C139.3,37.5,136.7,36.6,134.8,34.7z"/>
	<path class="st0" d="M156.2,25.2l-5-0.9l0.6-3.3l13.7,2.3l-0.6,3.3l-5-0.9L157.6,39l-3.6-0.6L156.2,25.2z"/>
	<path class="st0" d="M173.5,25.6l3.2,1.1l1.5,18.2l-3.7-1.2l-0.3-4l-6.7-2.2l-2.6,3.1l-3.6-1.2L173.5,25.6z M174.1,36.2l-0.4-5.8
		l-3.8,4.5L174.1,36.2z"/>
	<path class="st0" d="M188,31.2l5.7,3.2c4.6,2.5,6,7.5,3.7,11.6l0,0c-2.3,4.1-7.2,5.6-11.8,3l-5.7-3.2L188,31.2z M187.2,46
		c2.6,1.5,5.4,0.7,6.8-1.9l0,0c1.4-2.6,0.7-5.4-2-6.8l-2.5-1.4l-4.9,8.8L187.2,46z"/>
	<path class="st0" d="M205.5,41.7l3,2.2l-10,13.4l-3-2.2L205.5,41.7z M211.2,39.6l1.7,3l-4,0l-2.2-1.6L211.2,39.6z"/>
	<path class="st0" d="M202.4,57l3.4-0.4c0.2,1.9,0.9,3.6,2.3,4.9c1.1,1,2.2,1.2,2.8,0.5l0,0c0.6-0.7,0.5-1.4-1-3.9
		c-1.9-2.9-2.8-5.1-0.5-7.5l0,0c2.1-2.2,5.2-2,7.7,0.3c1.8,1.7,2.8,3.6,3.1,5.8l-3.3,0.7c-0.4-1.8-1-3.2-2-4.2c-1-1-2-1-2.6-0.4l0,0
		c-0.8,0.8-0.5,1.6,1.1,4.1c1.9,3,2.4,5.2,0.4,7.3l0,0c-2.3,2.4-5.4,2.1-8-0.4C203.9,62.1,202.6,59.7,202.4,57z"/>
	<path class="st0" d="M224.7,64.3l-3.2-4l2.7-2.1l8.6,10.9l-2.7,2.1l-3.2-4l-10.4,8.3l-2.3-2.9L224.7,64.3z"/>
	<path class="st0" d="M235.2,72.9l1.9,3.1l-14.2,8.8l-1.9-3.1L235.2,72.9z"/>
	<path class="st0" d="M232.1,83.8L232.1,83.8c4.4-2,9.4-0.3,11.5,4.3c1.3,2.9,1.1,5,0.4,7.1l-3.4-1c0.5-1.7,0.6-3.1,0-4.7
		c-1.2-2.6-4.1-3.4-6.7-2.3l0,0c-2.6,1.2-4,4-2.8,6.6c0.8,1.7,2,2.5,3.6,3.2l-1.2,3.1c-2.4-0.8-4.2-2.1-5.6-5
		C225.8,90.7,227.8,85.8,232.1,83.8z"/>
	<path class="st0" d="M239.4,100.2L239.4,100.2c4.7-1.2,9.3,1.6,10.6,6.6s-1.6,9.5-6.2,10.7l0,0c-4.6,1.1-9.3-1.6-10.5-6.6
		C232,105.9,234.8,101.4,239.4,100.2z M242.8,113.7L242.8,113.7c2.8-0.7,4.6-3.3,3.9-6.2s-3.5-4.3-6.3-3.6l0,0
		c-2.8,0.7-4.6,3.3-3.9,6.2S240,114.4,242.8,113.7z"/>
	<path class="st0" d="M238.1,120.7l2.7,2c-1.1,1.6-1.8,3.2-1.7,5.1c0.1,1.5,0.8,2.4,1.7,2.3l0,0c0.9-0.1,1.4-0.7,1.9-3.5
		c0.6-3.4,1.4-5.6,4.7-5.9l0,0c3-0.2,5.2,2.1,5.4,5.5c0.2,2.4-0.5,4.6-1.7,6.3l-2.9-1.7c0.9-1.5,1.4-3,1.4-4.4s-0.8-2.1-1.6-2l0,0
		c-1.1,0.1-1.4,0.8-2,3.7c-0.7,3.4-1.7,5.4-4.6,5.6l0,0c-3.3,0.2-5.3-2.2-5.6-5.8C235.7,125.4,236.4,122.8,238.1,120.7z"/>
</g>
<g>
	<path class="st1" d="M253,147.7l-1.4,12.5l-3.3-0.4l1-8.9l-3.4-0.4l-0.9,7.8l-3.3-0.4l0.9-7.8l-3.5-0.4l-1,9l-3.3-0.4l1.4-12.7
		L253,147.7z"/>
	<path class="st1" d="M237.1,160.7l1.9,2.8c-1.6,1.1-2.8,2.4-3.3,4.3c-0.4,1.5-0.1,2.5,0.9,2.7l0,0c0.9,0.2,1.5-0.2,2.9-2.7
		c1.7-3,3.2-4.9,6.4-4l0,0c2.9,0.8,4.2,3.7,3.3,7c-0.6,2.4-1.9,4.2-3.7,5.4l-2.2-2.6c1.4-1.2,2.4-2.4,2.7-3.8s-0.1-2.2-0.8-2.5l0,0
		c-1.1-0.3-1.6,0.3-3.1,2.9c-1.7,3-3.4,4.6-6.2,3.8l0,0c-3.2-0.9-4.3-3.8-3.4-7.3C233.3,164.4,234.8,162.1,237.1,160.7z"/>
	<path class="st1" d="M241.1,183.9l2.1-4.7l3.1,1.4l-5.6,12.7l-3.1-1.4l2.1-4.7l-12.2-5.4l1.5-3.4L241.1,183.9z"/>
	<path class="st1" d="M230.4,192.2l8,5.2l-2,3.1l-7.9-5.2c-2.3-1.5-4.2-1.1-5.4,0.7c-1.2,1.9-0.8,3.8,1.4,5.2l8,5.3l-2,3.1l-7.9-5.2
		c-4.2-2.8-4.7-6.5-2.3-10.3C222.7,190.4,226.3,189.5,230.4,192.2z"/>
	<path class="st1" d="M226.6,214.3l-4.5,4.7c-3.6,3.8-8.7,3.9-12.1,0.7l0,0c-3.4-3.2-3.5-8.4,0.1-12.2l4.5-4.7L226.6,214.3z
		 M212.5,209.8c-2.1,2.2-2,5,0.1,7.1l0,0c2.1,2,5,2,7.1-0.2l2-2.1l-7.3-7L212.5,209.8z"/>
	<path class="st1" d="M211.9,228.6l-2.9,2.3l-10.5-13l2.9-2.3L211.9,228.6z"/>
	<path class="st1" d="M200.8,227.1L200.8,227.1c2.5,4.1,1.2,9.4-3.2,12c-4.4,2.6-9.6,1.2-12-2.9l0,0c-2.4-4.1-1.2-9.3,3.2-12
		C193.2,221.6,198.3,223,200.8,227.1z M188.8,234.2L188.8,234.2c1.5,2.5,4.5,3.5,7.1,2c2.5-1.5,3.1-4.6,1.7-7l0,0
		c-1.5-2.5-4.5-3.4-7-1.9C187.9,228.7,187.3,231.7,188.8,234.2z"/>
	<path class="st1" d="M180.8,231.7l-1.1,3.2c-1.8-0.6-3.6-0.8-5.4-0.1c-1.4,0.5-2,1.4-1.7,2.3l0,0c0.3,0.9,1,1.1,3.9,0.8
		c3.5-0.4,5.8-0.3,7,2.8l0,0c1.1,2.8-0.5,5.6-3.7,6.8c-2.3,0.9-4.5,0.9-6.6,0.2l0.8-3.3c1.7,0.4,3.3,0.5,4.6,0
		c1.3-0.5,1.8-1.4,1.5-2.1l0,0c-0.4-1-1.2-1.1-4.1-0.8c-3.5,0.4-5.7-0.1-6.7-2.8l0,0c-1.2-3.1,0.5-5.7,3.9-7
		C175.6,230.8,178.3,230.7,180.8,231.7z"/>
	<path class="st1" d="M160.6,252.9l-12.5,1.7l-0.4-3.2l8.9-1.2l-0.5-3.4l-7.8,1l-0.4-3.2l7.8-1l-0.5-3.5l-9,1.2l-0.4-3.2l12.6-1.7
		L160.6,252.9z"/>
	<path class="st1" d="M144.2,240.6l-2.2,2.6c-1.5-1.3-3-2.1-4.9-2.1c-1.5,0-2.4,0.5-2.4,1.5l0,0c0,0.9,0.5,1.4,3.3,2.2
		c3.3,0.9,5.5,1.9,5.4,5.2l0,0c-0.1,3-2.5,5-6,4.9c-2.4,0-4.5-0.9-6.2-2.3l2-2.7c1.5,1.1,2.9,1.7,4.3,1.7c1.4,0,2.2-0.6,2.2-1.4l0,0
		c0-1.1-0.7-1.5-3.6-2.3c-3.4-1-5.3-2.2-5.2-5.1l0,0c0.1-3.3,2.6-5.1,6.2-5.1C139.6,237.8,142.2,238.7,144.2,240.6z"/>
	<path class="st1" d="M122.7,250.1l5,0.9l-0.6,3.3l-13.7-2.3l0.6-3.3l5,0.9l2.2-13.1l3.6,0.6L122.7,250.1z"/>
	<path class="st1" d="M105.4,249.7l-3.2-1.1l-1.5-18.2l3.7,1.2l0.3,4l6.7,2.2l2.6-3.1l3.6,1.2L105.4,249.7z M104.8,239.1l0.4,5.8
		l3.8-4.5L104.8,239.1z"/>
	<path class="st1" d="M90.9,244.1l-5.7-3.2c-4.6-2.5-6-7.5-3.7-11.6l0,0c2.3-4.1,7.2-5.6,11.8-3l5.7,3.2L90.9,244.1z M91.7,229.3
		c-2.6-1.5-5.4-0.7-6.8,1.9l0,0c-1.4,2.6-0.7,5.4,2,6.8l2.5,1.4l4.9-8.8L91.7,229.3z"/>
	<path class="st1" d="M67.7,235.7l-1.7-3l4,0l2.2,1.6L67.7,235.7z M73.4,233.6l-3-2.2l10-13.4l3,2.2L73.4,233.6z"/>
	<path class="st1" d="M76.5,218.3l-3.4,0.4c-0.2-1.9-0.9-3.6-2.3-4.9c-1.1-1-2.2-1.2-2.8-0.5l0,0c-0.6,0.7-0.5,1.4,1,3.9
		c1.9,2.9,2.8,5.1,0.5,7.5l0,0c-2.1,2.2-5.2,2-7.7-0.3c-1.8-1.7-2.8-3.6-3.1-5.8l3.3-0.7c0.4,1.8,1,3.2,2,4.2c1,1,2,1,2.6,0.4l0,0
		c0.8-0.8,0.5-1.6-1.1-4.1c-1.9-3-2.4-5.2-0.4-7.3l0,0c2.3-2.4,5.4-2.1,8,0.4C75,213.2,76.3,215.6,76.5,218.3z"/>
	<path class="st1" d="M54.2,211l3.2,4l-2.7,2.1l-8.6-10.9l2.7-2.1l3.2,4l10.4-8.3l2.3,2.9L54.2,211z"/>
	<path class="st1" d="M43.8,202.4l-1.9-3.1l14.2-8.8l1.9,3.1L43.8,202.4z"/>
	<path class="st1" d="M46.8,191.5L46.8,191.5c-4.4,2-9.4,0.3-11.5-4.3c-1.3-2.9-1.1-5-0.4-7.1l3.4,1c-0.5,1.7-0.6,3.1,0,4.7
		c1.2,2.6,4.1,3.4,6.7,2.3l0,0c2.6-1.2,4-4,2.8-6.6c-0.8-1.7-2-2.5-3.6-3.2l1.2-3.1c2.4,0.8,4.2,2.1,5.6,5
		C53.1,184.6,51.1,189.5,46.8,191.5z"/>
	<path class="st1" d="M39.5,175.1L39.5,175.1c-4.7,1.2-9.3-1.6-10.6-6.6s1.6-9.5,6.2-10.7l0,0c4.6-1.1,9.3,1.6,10.5,6.6
		C46.9,169.4,44.1,173.9,39.5,175.1z M36.1,161.6L36.1,161.6c-2.8,0.7-4.6,3.3-3.9,6.2c0.7,2.9,3.5,4.3,6.3,3.6l0,0
		c2.8-0.7,4.6-3.3,3.9-6.2S38.9,160.9,36.1,161.6z"/>
	<path class="st1" d="M40.8,154.6l-2.7-2c1.1-1.6,1.8-3.2,1.7-5.1c-0.1-1.5-0.8-2.4-1.7-2.3l0,0c-0.9,0.1-1.4,0.7-1.9,3.5
		c-0.6,3.4-1.4,5.6-4.7,5.9l0,0c-3,0.2-5.2-2.1-5.4-5.5c-0.2-2.4,0.5-4.6,1.7-6.3l2.9,1.7c-0.9,1.5-1.4,3-1.4,4.4s0.8,2.1,1.6,2l0,0
		c1.1-0.1,1.4-0.8,2-3.7c0.7-3.4,1.7-5.4,4.6-5.6l0,0c3.3-0.2,5.3,2.2,5.6,5.8C43.2,149.9,42.5,152.5,40.8,154.6z"/>
</g>
<g>
	<path class="st2" d="M58.6,165c2.6-1.4,10.9-7.7,10.9-28.3c0-5.7,0.7-11.3,2-16.8c0.5-2-0.8-4-2.8-4.5c-2-0.5-4,0.8-4.5,2.8
		c-1.5,6-2.2,12.3-2.2,18.5c0,16.1-5.7,20.8-6.9,21.6c-1.8,0.6-3.5,1.3-5.2,2.1c0.7,2.5,1.4,4.9,2.3,7.2c1.9-0.9,3.8-1.7,5.8-2.4
		C58.2,165.2,58.4,165.1,58.6,165z"/>
	<path class="st2" d="M101,146.7c0.2-2.1-1.3-3.9-3.3-4.1c-2.1-0.2-3.9,1.3-4.1,3.3c-3.5,32.3-24.6,40-25.4,40.3
		c-1.9,0.6-3.7,1.3-5.3,2.2c1.4,2.1,2.9,4.1,4.5,6.1c1-0.5,2.1-0.9,3.2-1.3C71.6,193,97.1,183.7,101,146.7z"/>
	<path class="st2" d="M104.8,184c1.1-1.7,0.7-4.1-1.1-5.2c-1.7-1.1-4.1-0.7-5.2,1.1c-10.4,15.8-24.2,20.4-24.8,20.6
		c-0.3,0.1-0.7,0.2-1,0.3c1.9,2,3.9,3.9,6,5.7C84.1,204.3,95.6,198,104.8,184z"/>
	<path class="st2" d="M64.7,179.1c3.5-1.4,20.8-10,20.8-42.4c0-24.8,15.9-46.3,39.5-53.7c2-0.6,3.1-2.7,2.5-4.7
		c-0.6-2-2.7-3.1-4.7-2.5C96,84.2,78,108.6,78,136.7c0,27.7-13.9,34.6-16,35.4c-2.4,0.8-4.6,1.7-6.8,2.9c1,2.3,2.2,4.5,3.4,6.7
		c1.9-1,3.8-1.8,5.9-2.5C64.6,179.2,64.7,179.2,64.7,179.1z"/>
	<path class="st2" d="M128,172.7c1.9-5.6,3.4-11.7,4.3-18c0.3-2-1.1-3.9-3.2-4.3c-2-0.3-3.9,1.1-4.3,3.2c-0.9,5.8-2.2,11.4-4,16.6
		c-8.6,25.2-25.8,37-35.2,41.8c2.3,1.7,4.7,3.2,7.1,4.6C103.6,210.2,119.6,197.1,128,172.7z"/>
	<path class="st2" d="M148.5,136.7c0-2.1-1.7-3.8-3.8-3.8c-2.1,0-3.8,1.7-3.8,3.8c0,31.2-9.6,56.2-28.5,74.4
		c-4.1,4-8.3,7.1-12.1,9.7c2.7,1.3,5.4,2.4,8.2,3.4c2.8-2.1,5.8-4.6,8.8-7.4C131.6,203.2,148.5,178.4,148.5,136.7z"/>
	<path class="st2" d="M150.7,187.1c-1.9-0.8-4.1,0-4.9,1.9c-5.6,12.7-13.4,23.9-23.2,33.2c-1.7,1.7-3.5,3.2-5.2,4.6
		c3,0.8,6.1,1.4,9.3,1.8c0.4-0.3,0.7-0.7,1.1-1c10.5-10,18.9-22,24.9-35.6C153.4,190.1,152.6,187.9,150.7,187.1z"/>
	<path class="st2" d="M154.9,174.6c0.3,0.1,0.6,0.1,0.9,0.1c1.7,0,3.2-1.1,3.6-2.8c2.7-11,4.1-22.8,4.1-35.2
		c0-10.3-8.4-18.8-18.8-18.8c-10.3,0-18.8,8.4-18.8,18.8c0,2.1,1.7,3.8,3.8,3.8c2.1,0,3.8-1.7,3.8-3.8c0-6.2,5-11.3,11.3-11.3
		c6.2,0,11.3,5,11.3,11.3c0,11.8-1.3,23-3.9,33.4C151.7,172.1,152.9,174.1,154.9,174.6z"/>
	<path class="st2" d="M174,121.7c-0.9-1.8-3.2-2.6-5-1.7c-1.9,0.9-2.6,3.2-1.7,5c1.8,3.6,2.7,7.5,2.7,11.6c0,46.3-18,75.6-34.6,92.8
		c1.6,0.1,3.1,0.1,4.7,0.1c1.8,0,3.7-0.1,5.5-0.2c16.1-18.7,31.9-48.4,31.9-92.8C177.5,131.4,176.3,126.4,174,121.7z"/>
	<path class="st2" d="M179.9,189.2c-1.9-0.7-4.1,0.3-4.8,2.3c-4.8,13.5-11.5,25.9-19.9,36.9c3.7-0.6,7.4-1.4,11-2.5
		c6.6-9.8,11.9-20.4,16-31.9C182.8,192.1,181.8,189.9,179.9,189.2z"/>
	<path class="st2" d="M185.8,163.9c0.2,0,0.3,0,0.5,0c1.9,0,3.5-1.4,3.7-3.3c1-7.7,1.5-15.8,1.5-24c0-26.9-21.9-48.8-48.8-48.8
		c-23.4,0-43.5,16.6-47.9,39.6c-0.4,2,0.9,4,3,4.4c2,0.4,4-0.9,4.4-3c3.7-19.4,20.8-33.5,40.5-33.5c22.7,0,41.3,18.5,41.3,41.3
		c0,7.9-0.5,15.6-1.4,23C182.3,161.8,183.8,163.6,185.8,163.9z"/>
	<path class="st2" d="M190,95c-9.9-11.5-23.5-19-38.4-21.3c-2.1-0.3-4,1.1-4.3,3.1c-0.3,2,1.1,4,3.1,4.3
		c27.1,4.2,47.6,28.1,47.6,55.6c0,36.6-9.5,64.7-21.8,85.7c4.1-1.7,8-3.7,11.7-5.9c10.3-20.7,17.6-47,17.6-79.8
		C205.5,121.4,200,106.6,190,95z"/>
	<path class="st2" d="M200.8,98.3c0.7,1.1,1.9,1.7,3.2,1.7c0.7,0,1.4-0.2,2-0.6c1.7-1.1,2.2-3.4,1.1-5.2
		c-14.6-22.7-39.4-36.3-66.3-36.3c-25.5,0-49.5,12.5-64.3,33.3c-1.2,1.7-0.8,4,0.9,5.2c1.7,1.2,4,0.8,5.2-0.9
		c13.4-18.9,35.1-30.2,58.2-30.2C165.1,65.4,187.5,77.7,200.8,98.3z"/>
	<path class="st2" d="M142.2,43c-0.7,0-1.3,0-2,0H140C88.5,43,46.9,84.8,46.9,136.3c0,5.6,0.5,11,1.4,16.3c0.3-0.1,0.6-0.2,0.8-0.3
		c0.8-0.3,1.5-0.9,1.9-1.7c1.1-2.1,2.5-6.3,2.5-13.8c0-47.6,38.7-86.3,86.3-86.3S226,89.1,226,136.7c0,16.7-1.7,31.8-4.6,45.6
		c7.7-13.5,12.1-29.2,12.1-45.8v-0.2C233.5,85.4,192.8,44,142.2,43z"/>
	<path class="st2" d="M215.8,132.9c-2.1,0-3.8,1.7-3.8,3.8c0,28.8-5.4,52.7-13.6,72.5c4.4-3.5,8.5-7.4,12.2-11.7
		c5.5-17.5,8.9-37.6,8.9-60.8C219.5,134.6,217.8,132.9,215.8,132.9z"/>
	<g>
		<path class="st2" d="M109.7,166.2c-0.2,0-0.4,0-0.6-0.1c-1.2-0.3-1.9-1.6-1.5-2.8c2.3-7.8,3.4-16.5,3.4-25.8
			c0-17.8,14.5-32.2,32.3-32.2c4.3,0,8.6,0.9,12.5,2.5c1.1,0.5,1.7,1.8,1.2,3c-0.4,0.8-1.2,1.4-2.1,1.4l0,0c-0.3,0-0.6-0.1-0.9-0.2
			c-3.4-1.4-7-2.2-10.8-2.2c-15.3,0-27.8,12.4-27.8,27.7c0,9.7-1.2,18.8-3.6,27C111.6,165.6,110.7,166.2,109.7,166.2z"/>
	</g>
</g>
<g>
	<path class="st1" d="M69.7,131.1c0.3-3.8,0.9-7.6,1.8-11.2c0.5-2-0.8-4-2.8-4.5c-2-0.5-4,0.8-4.5,2.8c-1,4.3-1.7,8.6-2,13H69.7z"/>
	<path class="st1" d="M85.8,131.1c2.2-22.4,17.4-41.4,39.3-48.2c2-0.6,3.1-2.7,2.5-4.7c-0.6-2-2.7-3.1-4.7-2.5
		c-25,7.8-42.4,29.6-44.6,55.3H85.8z"/>
	<path class="st1" d="M126.3,138.1c0.6,1.3,1.9,2.3,3.5,2.3s2.9-0.9,3.5-2.3H126.3z"/>
	<path class="st1" d="M135,131.1c1.9-3.4,5.6-5.7,9.8-5.7c4.2,0,7.8,2.3,9.8,5.7h8.1c-2.4-7.6-9.5-13.2-17.9-13.2
		s-15.5,5.6-17.9,13.2H135z"/>
	<path class="st1" d="M169.4,131.1h7.6c-0.5-3.3-1.5-6.4-3-9.4c-0.9-1.8-3.2-2.6-5-1.7c-1.9,0.9-2.6,3.2-1.7,5
		C168.3,127,169,129,169.4,131.1z"/>
	<path class="st1" d="M96.3,131.1h4.6c0.7-0.5,1.2-1.3,1.4-2.2c3.7-19.4,20.8-33.5,40.5-33.5c20.9,0,38.1,15.6,40.9,35.7h7.6
		c-2.8-24.3-23.4-43.2-48.4-43.2c-23.3,0-43.5,16.6-47.9,39.5C94.6,128.9,95.2,130.3,96.3,131.1z"/>
	<path class="st1" d="M150.5,81.1c25.3,3.9,44.7,25,47.3,50h7.5c-1.2-13.3-6.5-25.9-15.3-36.1c-9.9-11.5-23.5-19-38.4-21.3
		c-2-0.3-4,1.1-4.3,3.1C147,78.9,148.4,80.8,150.5,81.1z"/>
	<path class="st1" d="M200.8,98.3c0.7,1.1,1.9,1.7,3.2,1.7c0.7,0,1.4-0.2,2-0.6c1.7-1.1,2.2-3.4,1.1-5.2
		c-14.6-22.7-39.4-36.3-66.3-36.3c-25.5,0-49.5,12.5-64.3,33.3c-1.2,1.7-0.8,4,0.9,5.2c1.7,1.2,4,0.8,5.2-0.9
		c13.4-18.9,35.1-30.2,58.2-30.2C165.1,65.4,187.5,77.7,200.8,98.3z"/>
	<path class="st1" d="M53.7,131.1c2.9-45,40.4-80.7,86.1-80.7s83.2,35.7,86.1,80.7h7.6C230.8,82.6,191.1,44,142.2,43
		c-0.7,0-1.3,0-2,0H140C90.3,43,49.7,82,47,131.1H53.7z"/>
</g>
<g>
	<path class="st2" d="M62,138.1c-0.3,14.9-5.7,19.4-6.8,20.1c-1.8,0.6-3.5,1.3-5.2,2.1c0.6,2.5,1.4,4.9,2.3,7.2
		c1.9-0.9,3.8-1.7,5.8-2.4c0.2-0.1,0.4-0.2,0.6-0.3c2.5-1.4,10.5-7.4,10.9-26.8H62z"/>
	<path class="st2" d="M101,146.7c0.2-2.1-1.3-3.9-3.3-4.1c-2.1-0.2-3.9,1.3-4.1,3.3c-3.5,32.3-24.6,40-25.4,40.3
		c-1.9,0.6-3.7,1.3-5.3,2.2c1.4,2.1,2.9,4.1,4.5,6.1c1-0.5,2.1-0.9,3.2-1.3C71.6,193,97.1,183.7,101,146.7z"/>
	<path class="st2" d="M104.8,184c1.1-1.7,0.7-4.1-1.1-5.2c-1.7-1.1-4.1-0.7-5.2,1.1c-10.4,15.8-24.2,20.4-24.8,20.6
		c-0.3,0.1-0.7,0.2-1,0.3c1.9,2,3.9,3.9,6,5.7C84.1,204.3,95.6,198,104.8,184z"/>
	<path class="st2" d="M78,138.1c-0.5,26.5-14,33.1-16,34c-2.4,0.8-4.6,1.7-6.8,2.9c1,2.3,2.2,4.5,3.4,6.7c1.9-1,3.8-1.8,5.9-2.5
		c0.1,0,0.1-0.1,0.2-0.1c3.4-1.4,20.2-9.8,20.8-41H78z"/>
	<path class="st2" d="M128,172.7c1.9-5.6,3.4-11.7,4.3-18c0.3-2-1.1-3.9-3.2-4.3c-2-0.3-3.9,1.1-4.3,3.2c-0.9,5.8-2.2,11.4-4,16.6
		c-8.6,25.2-25.8,37-35.2,41.8c2.3,1.7,4.7,3.2,7.1,4.6C103.6,210.2,119.6,197.1,128,172.7z"/>
	<path class="st2" d="M141,138.1c-0.3,30.5-9.9,55-28.5,72.9c-4.1,4-8.3,7.2-12.1,9.7c2.7,1.3,5.4,2.4,8.2,3.4
		c2.8-2.1,5.8-4.6,8.8-7.4c14-13.3,30.7-37.8,31.1-78.6H141z"/>
	<path class="st2" d="M150.7,187.1c-1.9-0.8-4.1,0-4.9,1.9c-5.6,12.7-13.4,23.9-23.2,33.2c-1.7,1.7-3.5,3.2-5.2,4.6
		c3,0.8,6.1,1.4,9.3,1.8c0.4-0.3,0.7-0.7,1.1-1c10.5-10,18.9-22,24.9-35.6C153.4,190.1,152.6,187.9,150.7,187.1z"/>
	<path class="st2" d="M156,138.1c-0.1,11.2-1.4,21.9-3.8,31.9c-0.5,2,0.7,4.1,2.7,4.5c0.3,0.1,0.6,0.1,0.9,0.1
		c1.7,0,3.2-1.1,3.6-2.8c2.6-10.5,3.9-21.9,4-33.7H156z"/>
	<path class="st2" d="M170,138.1c-0.4,45.5-18.2,74.4-34.6,91.3c1.6,0.1,3.1,0.1,4.7,0.1c1.8,0,3.6,0,5.5-0.2
		c15.9-18.5,31.5-47.7,31.9-91.3H170z"/>
	<path class="st2" d="M179.9,189.2c-1.9-0.7-4.1,0.3-4.8,2.3c-4.8,13.5-11.5,25.9-19.9,36.9c3.7-0.6,7.4-1.4,11-2.5
		c6.6-9.8,11.9-20.4,16-31.9C182.8,192.1,181.8,189.9,179.9,189.2z"/>
	<path class="st2" d="M184,138.1c-0.1,7.4-0.5,14.6-1.4,21.6c-0.3,2.1,1.2,3.9,3.2,4.2c0.2,0,0.3,0,0.5,0c1.9,0,3.5-1.4,3.7-3.3
		c0.9-7.3,1.4-14.8,1.5-22.5H184z"/>
	<path class="st2" d="M198,138.1c-0.3,35.9-9.7,63.5-21.8,84.3c4.1-1.7,8-3.7,11.7-5.9c10.1-20.4,17.4-46.2,17.6-78.3H198z"/>
	<path class="st2" d="M226,138.1c-0.1,16.1-1.8,30.8-4.6,44.2c7.4-13.1,11.8-28.1,12.1-44.2H226z"/>
	<path class="st2" d="M46.9,138.1c0.1,4.9,0.5,9.7,1.4,14.4c0.3-0.1,0.6-0.2,0.8-0.4c0.8-0.3,1.5-0.9,1.9-1.7
		c1.1-2,2.3-5.7,2.5-12.3H46.9z"/>
	<path class="st2" d="M212,138.1c-0.2,28.1-5.6,51.6-13.5,71c4.4-3.5,8.5-7.4,12.2-11.7c5.3-17.1,8.7-36.8,8.8-59.3H212z"/>
	<g>
		<path class="st2" d="M116.2,131.1c2.9-12.2,13.9-21.3,27-21.3c3.7,0,7.4,0.7,10.8,2.2c0.3,0.1,0.6,0.2,0.9,0.2
			c0.9,0,1.7-0.5,2.1-1.4c0.5-1.1-0.1-2.5-1.2-3c-4-1.7-8.2-2.5-12.5-2.5c-15.6,0-28.6,11.1-31.6,25.8H116.2z"/>
		<path class="st2" d="M111,138.1c0,9.1-1.2,17.6-3.4,25.2c-0.3,1.2,0.3,2.5,1.5,2.8c0.2,0.1,0.4,0.1,0.6,0.1c1,0,1.9-0.7,2.2-1.6
			c2.3-8,3.5-17,3.6-26.5H111z"/>
	</g>
</g>
</svg>
